<svg xmlns="http://www.w3.org/2000/svg" viewBox="0 0 549.33 320.23"><defs><style>.cls-1{fill:#003e69;}.cls-2{fill:#6ba4b8;}</style></defs><title>Asset 69-</title><g id="Layer_2" data-name="Layer 2"><g id="Layer_1-2" data-name="Layer 1"><path class="cls-1" d="M22,211.66l-1,2a1,1,0,0,1-1.4.38,9.74,9.74,0,0,0-4.88-1.32c-6.67,0-9.86,6.57-9.86,11.64v23.55a1.24,1.24,0,0,1-1.22,1.22H1.22A1.24,1.24,0,0,1,0,247.88v-36.5a1.26,1.26,0,0,1,1.22-1.31H2.63c.65,0,1,.94,1.22,1.59L4.41,215c1-1.69,4.69-6.38,10.7-6.38a13.24,13.24,0,0,1,6.47,1.69A1,1,0,0,1,22,211.66Z"/><path class="cls-1" d="M62,229.21a1.44,1.44,0,0,1-1.4,1.4H30.14c.57,8.73,5.54,15.3,15.2,15.3,6.1,0,8.92-2.63,11.26-4.88a1.1,1.1,0,0,1,1.69,0l1,1.31c.66.66.66,1,.1,1.6-2.63,3.09-7.79,5.91-14.45,5.91-11.82,0-19.71-8.54-19.71-20.64s7.89-20.55,19.24-20.55C55.57,208.66,62,216.63,62,229.21Zm-32-2.54H57.16c-.18-9.47-5.63-14.16-13-14.16C35.49,212.51,30.71,218.79,30.05,226.67Z"/><path class="cls-1" d="M105.46,211.38v40.44c0,10.6-7,16.51-17.45,16.51-9.1,0-14.26-4.6-16.23-9.19-.28-.66-.19-1,.28-1.32l2.06-1.4a.84.84,0,0,1,1.32.47c1.5,3.19,4.5,7.31,12.19,7.31,8.54,0,13.23-5,13.14-13l-.09-7.22c-2.54,3.94-6.67,5.91-12.58,5.91-12.94,0-18.95-9.29-18.95-20.27,0-11.35,6.38-20.92,18.86-20.92,6.47,0,10.79,2.63,12.76,6l.56-3.09c.19-1.13.56-1.5,1.22-1.5h1.78A1.25,1.25,0,0,1,105.46,211.38Zm-4.41,18.2c0-9.76-2.25-16.89-12.29-16.89-10.79,0-14.82,8.17-14.82,16.61,0,8.73,4.31,16.51,14.91,16.51C98.89,245.81,101.05,239.25,101.05,229.58Z"/><path class="cls-1" d="M116.16,195.43a3.05,3.05,0,1,1,6.1,0,3.05,3.05,0,0,1-6.1,0Zm.66,52.45V210.63a1.24,1.24,0,0,1,1.22-1.22h2.35a1.24,1.24,0,0,1,1.22,1.22v37.25a1.24,1.24,0,0,1-1.22,1.22H118A1.24,1.24,0,0,1,116.82,247.88Z"/><path class="cls-1" d="M130.36,244.6c-.57-.76-.57-1.23-.19-1.69l.94-1.51a1.1,1.1,0,0,1,1.78-.09,16.71,16.71,0,0,0,11.54,4.6c6,0,9.66-2.82,9.66-7.41,0-3.85-2.34-5.63-9.94-7.79-9.76-2.53-13.14-5.44-13.14-11.17,0-6.56,5.35-10.88,13.61-10.88a19.55,19.55,0,0,1,11.07,3.28c.84.47,1,1,.75,1.69l-1.13,1.69a1,1,0,0,1-1.5.38c-3.47-2.35-5.81-3.1-9-3.1-5.63,0-8.92,2.44-8.92,6.38,0,3.66,1.88,5.72,8.82,7.51C155.22,229.4,159,232.4,159,237.93c0,7-5.91,11.92-14.16,11.92C138.61,249.85,133.45,247.78,130.36,244.6Z"/><path class="cls-1" d="M189.17,245.35a12.29,12.29,0,0,1-9.94,4.31c-6.67,0-9.29-4.69-9.29-11.45V213.54h-4.41a1.16,1.16,0,0,1-1.22-1.13v-1.78a1.24,1.24,0,0,1,1.22-1.22h4.41v-10a1.24,1.24,0,0,1,1.22-1.22h2.25a1.26,1.26,0,0,1,1.31,1.22v10h10.7a1.35,1.35,0,0,1,1.41,1.22v1.78a1.29,1.29,0,0,1-1.41,1.13h-10.7V238.4c0,5,2,7.13,5.16,7.13a7.69,7.69,0,0,0,6.76-3.37c.47-.47,1-.66,1.5-.1l1.22,1.69A1.2,1.2,0,0,1,189.17,245.35Z"/><path class="cls-1" d="M231.23,229.21a1.44,1.44,0,0,1-1.41,1.4H199.33c.56,8.73,5.54,15.3,15.2,15.3,6.1,0,8.91-2.63,11.26-4.88a1.1,1.1,0,0,1,1.69,0l1,1.31c.66.66.66,1,.09,1.6-2.62,3.09-7.78,5.91-14.44,5.91-11.83,0-19.71-8.54-19.71-20.64s7.88-20.55,19.24-20.55C224.76,208.66,231.23,216.63,231.23,229.21Zm-32-2.54h27.11c-.18-9.47-5.63-14.16-13-14.16C204.68,212.51,199.89,218.79,199.24,226.67Z"/><path class="cls-1" d="M262.1,211.66l-1,2a1,1,0,0,1-1.4.38,9.74,9.74,0,0,0-4.88-1.32c-6.66,0-9.85,6.57-9.85,11.64v23.55a1.24,1.24,0,0,1-1.22,1.22h-2.35a1.24,1.24,0,0,1-1.22-1.22v-36.5a1.26,1.26,0,0,1,1.22-1.31h1.41c.65,0,1,.94,1.22,1.59l.56,3.38c1-1.69,4.69-6.38,10.7-6.38a13.24,13.24,0,0,1,6.47,1.69A1,1,0,0,1,262.1,211.66Z"/><path class="cls-1" d="M302.18,229.21a1.44,1.44,0,0,1-1.4,1.4h-30.5c.57,8.73,5.54,15.3,15.2,15.3,6.1,0,8.92-2.63,11.26-4.88a1.1,1.1,0,0,1,1.69,0l1,1.31c.66.66.66,1,.1,1.6-2.63,3.09-7.79,5.91-14.45,5.91-11.82,0-19.71-8.54-19.71-20.64s7.89-20.55,19.24-20.55C295.71,208.66,302.18,216.63,302.18,229.21Zm-32-2.54h27.12c-.19-9.47-5.63-14.16-13.05-14.16C275.63,212.51,270.85,218.79,270.19,226.67Z"/><path class="cls-1" d="M331.41,245.35a12.33,12.33,0,0,1-10,4.31c-6.66,0-9.29-4.69-9.29-11.45V213.54h-4.41a1.17,1.17,0,0,1-1.22-1.13v-1.78a1.24,1.24,0,0,1,1.22-1.22h4.41v-10a1.24,1.24,0,0,1,1.22-1.22h2.25a1.27,1.27,0,0,1,1.32,1.22v10h10.69a1.35,1.35,0,0,1,1.41,1.22v1.78a1.29,1.29,0,0,1-1.41,1.13H317V238.4c0,5,2,7.13,5.16,7.13a7.68,7.68,0,0,0,6.75-3.37c.47-.47,1-.66,1.5-.1l1.22,1.69A1.19,1.19,0,0,1,331.41,245.35Z"/><path class="cls-1" d="M14.86,170.51c0,1.35-.68,2.36-1.86,2.36H2.19A2.17,2.17,0,0,1,0,170.51V57a2.17,2.17,0,0,1,2.19-2.36H13c1.18,0,1.86,1,1.86,2.36v51.84L64.84,57c1.69-1.86,3-2.36,4.39-2.36H81.55a1.79,1.79,0,0,1,1.19,2.87l-54.2,56.22L82.9,170a1.74,1.74,0,0,1-1.35,2.87H68.38c-1.35,0-3-1.18-4.22-2.36l-49.3-51.16Z"/><path class="cls-1" d="M140.84,105.33l-3.72,7.26a2.17,2.17,0,0,1-2.87.85,15.93,15.93,0,0,0-8.27-2.37c-10.13,0-15.2,9.79-15.2,18.91v40.53a2.41,2.41,0,0,1-2.36,2.36H99a2.27,2.27,0,0,1-2.19-2.36V104.82A2.32,2.32,0,0,1,99,102.29h5.91c1.35,0,2.37,1.69,2.87,3l1.35,5.57c2.54-3.71,9.29-10.8,19.25-10.8A23,23,0,0,1,140,103,1.75,1.75,0,0,1,140.84,105.33Z"/><path class="cls-1" d="M214.25,139.1a2.59,2.59,0,0,1-2.53,2.53H159.54c1.35,12.84,9,22.12,24,22.12,9.63,0,14.86-3.71,19.08-7.26,1-.84,1.86-1.18,3,0l3,5.07c1,1.18,1,1.85,0,2.87-5.4,5.57-15.37,9.79-26.34,9.79-21.78,0-36.81-15.36-36.81-37,0-22.12,14.52-37.14,35.8-37.14C202.77,100.1,214.25,115.29,214.25,139.1Zm-55-7.77h41.2c-.34-13.84-8.28-21.44-19.93-21.44C167.31,109.89,160.22,119.68,159.21,131.33Z"/><path class="cls-1" d="M277.28,59.21c1.86,1.35,1.52,2.53,1,3.37l-4.06,5.74c-.84,1.18-2.19,1.52-3,.85-3.37-2-5.91-3-10-3-10.47,0-14.35,5.91-14.35,19.58v15.74h18.74a2.31,2.31,0,0,1,2.37,2.36v6.76a2.42,2.42,0,0,1-2.37,2.36H246.89v57.58a2.17,2.17,0,0,1-2.19,2.36h-9.63a2.27,2.27,0,0,1-2.19-2.36V112.93h-8.11a2.38,2.38,0,0,1-2.19-2.36v-6.76a2.27,2.27,0,0,1,2.19-2.36h8.11V84.53c.33-22.62,11-29.88,26.34-29.88C266.81,54.65,273.74,56.5,277.28,59.21Z"/><path class="cls-1" d="M331,167c-3.88,3.55-9.79,7.09-19.92,7.09-13.51,0-18.57-9.45-18.91-22.29V112.93H284.9a2.31,2.31,0,0,1-2.37-2.36v-6.76a2.31,2.31,0,0,1,2.37-2.36h7.26V83.55a2.3,2.3,0,0,1,2.36-2.36H304a2.27,2.27,0,0,1,2.19,2.36v17.9h17.9a2.45,2.45,0,0,1,2.53,2.36v6.76a2.45,2.45,0,0,1-2.53,2.36h-17.9v38.33c0,7.93,3.21,11.31,8.61,11.31a13.43,13.43,0,0,0,10.81-4.9,1.74,1.74,0,0,1,2.87.17l3,6.25A2.2,2.2,0,0,1,331,167Z"/><circle class="cls-1" cx="528.37" cy="160.11" r="20.97"/><circle class="cls-1" cx="496.79" cy="192.48" r="18.37"/><circle class="cls-1" cx="467.39" cy="221.87" r="17.05"/><circle class="cls-1" cx="440.63" cy="248.26" r="14.52"/><circle class="cls-1" cx="417.2" cy="271.88" r="12.51"/><circle class="cls-1" cx="396.39" cy="292.7" r="10.34"/><circle class="cls-1" cx="377.09" cy="311.76" r="8.47"/><circle class="cls-2" cx="465.11" cy="160.15" r="17.05"/><circle class="cls-2" cx="435.22" cy="189.4" r="14.52"/><circle class="cls-2" cx="408.56" cy="215.86" r="12.51"/><circle class="cls-2" cx="384.75" cy="239.52" r="10.34"/><circle class="cls-1" cx="496.79" cy="127.75" r="18.37"/><circle class="cls-1" cx="467.39" cy="98.36" r="17.05"/><circle class="cls-1" cx="440.63" cy="71.97" r="14.52"/><circle class="cls-1" cx="417.2" cy="48.35" r="12.51"/><circle class="cls-1" cx="396.4" cy="27.54" r="10.34"/><circle class="cls-1" cx="377.09" cy="8.47" r="8.47"/><circle class="cls-2" cx="435.22" cy="130.9" r="14.52"/><circle class="cls-2" cx="408.56" cy="104.44" r="12.51"/><circle class="cls-2" cx="406.02" cy="160" r="12.51"/><circle class="cls-2" cx="384.76" cy="80.78" r="10.34"/></g></g></svg>